<svg class="svg-icon" style="width: 1.0068359375em;height: 1em;vertical-align: middle;fill: currentColor;overflow: hidden;" viewBox="0 0 1031 1024" version="1.1" xmlns="http://www.w3.org/2000/svg"><path d="M491.015293 965.47142l473.988354-151.237136s42.412781-11.071985 42.412781-42.424984V212.983181s3.693373-38.73161-54.404043-54.408109c-58.085213-15.672432-375.316708-82.067735-375.316708-82.067735s-40.5905-14.757224-129.097233 3.685238L45.797018 185.608288l-7.455896 3.392371 452.674171 776.470761z" fill="#FFDEC2" /><path d="M495.957417 980.973012l473.988354-151.233068a23.807616 23.807616 0 0 1-0.833857 0.244056c20.260675-5.291937 54.570813-23.494411 54.570814-58.166565V212.991317c0 0.516584-0.024406 1.029101-0.081352 1.545685 0.211515-2.139553 4.18962-52.626504-66.354627-71.662835-57.877766-15.611418-363.244095-79.570233-376.215646-82.283317 0.756572 0.158636 1.500941 0.370151 2.22904 0.634544-1.834484-0.667085-45.99633-16.115799-137.980854 3.050694a18.995654 18.995654 0 0 0-0.801315 0.187109L41.676547 169.866707a16.091394 16.091394 0 0 0-2.623597 0.931478l-7.455896 3.392372a16.278503 16.278503 0 0 0-7.31353 23.002233l452.674171 776.474827a16.270368 16.270368 0 0 0 18.999722 7.305395zM45.077054 203.806694l7.455896-3.392372a16.091394 16.091394 0 0 1-2.623597 0.931479l402.801427-105.407578a13.463729 13.463729 0 0 1-0.801316 0.18711c81.697584-17.022872 119.859732-4.454013 120.225815-4.323851 0.728099 0.264393 1.468401 0.475908 2.229041 0.634545 3.160519 0.663017 317.42674 66.480723 374.405567 81.852152 42.343632 11.425866 42.534809 34.895871 42.416849 37.535739-0.048811 0.512517-0.044744 0.650815-0.044744 1.167399v558.826118c0 17.978756-29.945612 26.602051-30.254749 26.687471a13.695582 13.695582 0 0 0-0.833856 0.244055l-473.984286 151.233069a16.270368 16.270368 0 0 1 18.999722 7.305395L52.394652 180.804462c2.318527 3.974037 2.843247 8.741255 1.443995 13.126119a16.237827 16.237827 0 0 1-8.761593 9.876113z" fill="#6E6E96" /><path d="M61.290475 814.250554s-36.880856-14.761291-36.880856-51.63808L24.405552 213.304521s3.164587-40.879299 51.634012-26.126143c54.790463 16.673059 414.97573 110.658839 414.975729 110.658839v667.642338s-0.357948 3.774725-31.352998-0.30507c-45.239758-5.971225-398.371819-150.923931-398.37182-150.923931z" fill="#FFDEC2" /><path d="M67.334917 799.143518l0.10169 0.044743c-1.09825-0.451503-26.764755-11.438069-26.764755-36.575787V213.304521c0 0.418962-0.01627 0.841992-0.052879 1.256886-0.008135 0.142366 1.045371-8.253144 6.678986-11.974991 6.117658-4.047254 16.433071-2.147689 24.00286 0.158637 54.477259 16.579505 400.881523 106.998006 415.602139 110.837812a16.270368 16.270368 0 0 1-12.1621-15.745648v667.642338c0-0.516584 0.024406-1.025033 0.073217-1.533482 0.780978-8.236874 7.31353-12.727495 10.636752-13.301026-0.20338 0.032541-5.182112 0.821654-23.665249-1.610766-31.649933-4.165214-253.154719-91.890969-394.450661-149.890763z m390.204095 182.163037c28.778213 3.790996 37.438116 1.952444 43.348327-2.757827 3.457453-2.757827 5.910211-7.134556 6.325105-11.535691a14.887386 14.887386 0 0 0 0.077285-1.533482V297.837217a16.274435 16.274435 0 0 0-12.1621-15.745649c-3.599819-0.935546-360.490335-94.091537-414.341186-110.479864-21.02945-6.40239-38.516028-4.990935-51.963487 4.18962-18.287893 12.48344-20.443717 33.846433-20.630826 36.242244-0.040676 0.418962-0.056946 0.841992-0.056946 1.260953v549.303886c0 47.350838 45.182811 65.976341 47.11085 66.741048 36.209703 14.871116 356.280378 145.884185 402.292978 151.9571z" fill="#6E6E96" /><path d="M517.296005 297.837217L992.712083 177.347008c-8.061967-7.215908-19.906795-14.041327-37.389305-18.759734-58.085213-15.672432-375.320776-82.067735-375.320776-82.067734s-40.586432-14.757224-129.097233 3.685238L49.803596 184.562917l1.549752-0.634545 420.064287 113.742074s21.245033 6.410525 45.87837 0.166771z" fill="#FFDEC2" /><path d="M521.29038 313.611338l475.420146-120.490208a16.245962 16.245962 0 0 0 11.800084-11.889571 16.241895 16.241895 0 0 0-4.954327-16.005974c-11.112661-9.945262-25.918696-17.462172-43.999142-22.343283-57.877766-15.611418-363.25223-79.570233-376.219714-82.283317 0.76064 0.158636 1.496874 0.370151 2.229041 0.634544-1.834484-0.667085-45.992262-16.115799-137.976786 3.050694-0.260326 0.056946-0.520652 0.113893-0.77691 0.183042l-401.105241 104.350003a16.270368 16.270368 0 0 1 10.262534 30.803874l1.549753-0.634544a16.270368 16.270368 0 0 1-10.413036 0.646747l420.064287 113.742073-0.443367-0.126095c1.033168 0.313205 25.886155 7.626735 54.562678 0.362015z m-45.618044-31.645865L55.603982 168.2234a16.282571 16.282571 0 0 0-10.417103 0.646747l-1.549753 0.634544a16.270368 16.270368 0 0 0 10.262535 30.803874l401.097106-104.358139c-0.252191 0.069149-0.516584 0.126095-0.772843 0.183042 81.050837-16.888642 119.713298-4.510959 120.067179-4.380797 0.772842 0.292867 1.574158 0.520652 2.379541 0.691491 3.164587 0.663017 317.434875 66.480723 374.413703 81.852153 13.134254 3.542873 23.482208 8.6477 30.779468 15.176185a16.270368 16.270368 0 0 1 6.845757-27.895545L513.289427 282.067163c-19.630199 4.974665-37.084236 0.048811-37.617091-0.10169z" fill="#6E6E96" /><path d="M53.899661 200.308565l7.492504 4.250634 330.48371 187.446839 82.112478 557.036378 3.306953-638.388217" fill="#6E6E96" opacity=".15" /><path d="M507.285661 943.205421l83.902219-563.402159 390.675935-190.330762L507.285661 313.611338z" fill="#6E6E96" opacity=".15" /></svg>