<svg class="svg-icon" style="width: 1em;height: 1em;vertical-align: middle;fill: currentColor;overflow: hidden;" viewBox="0 0 1024 1024" version="1.1" xmlns="http://www.w3.org/2000/svg"><path d="M0 0m125.582536 0l772.834928 0q125.582536 0 125.582536 125.582536l0 772.834928q0 125.582536-125.582536 125.582536l-772.834928 0q-125.582536 0-125.582536-125.582536l0-772.834928q0-125.582536 125.582536-125.582536Z" fill="#AA66CC" /><path d="M305.165563 463.901889h94.56365v96.196222H305.165563z" fill="#F5F5F5" /><path d="M466.413539 479.599706h258.44886v15.697817H466.413539zM466.413539 527.697817h258.44886v15.697817H466.413539z" fill="#CED0D0" /><path d="M354.142752 525.186166l-43.953888-43.953887-11.176845 11.176845 43.953887 43.953888 11.176846 11.051263 11.051263-11.051263 61.284278-61.284278-11.051263-11.176845-61.284278 61.284277z" fill="#FB5D74" /><path d="M305.165563 463.901889h94.56365v96.196222H305.165563z" fill="#F5F5F5" /><path d="M466.413539 479.599706h258.44886v15.697817H466.413539zM466.413539 527.697817h258.44886v15.697817H466.413539z" fill="#CED0D0" /><path d="M354.142752 525.186166l-43.953888-43.953887-11.176845 11.176845 43.953887 43.953888 11.176846 11.051263 11.051263-11.051263 61.284278-61.284278-11.051263-11.176845-61.284278 61.284277z" fill="#FB5D74" /><path d="M215.750797 145.926907m37.046848 0l518.40471 0q37.046848 0 37.046848 37.046848l0 688.569046q0 37.046848-37.046848 37.046848l-518.40471 0q-37.046848 0-37.046848-37.046848l0-688.569046q0-37.046848 37.046848-37.046848Z" fill="#334D5C" /><path d="M250.285995 190.383125m37.046848 0l449.334314 0q37.046848 0 37.046848 37.046848l0 599.65661q0 37.046848-37.046848 37.046848l-449.334314 0q-37.046848 0-37.046848-37.046848l0-599.65661q0-37.046848 37.046848-37.046848Z" fill="#F5F5F5" /><path d="M661.443218 162.503802h-298.886436a17.707138 17.707138 0 0 0-17.707138 17.707137v57.265637a17.707138 17.707138 0 0 0 17.707138 17.707138h87.907775v-15.8234h124.326711v15.8234h87.907775a17.707138 17.707138 0 0 0 17.707138-17.707138v-57.265637a17.707138 17.707138 0 0 0-18.962963-17.707137z" fill="#F5F5F5" /><path d="M634.31739 175.689968v-32.149129H389.68261v32.149129h-39.558499v14.567574h39.558499v14.441992h244.63478v-14.441992h38.553839v-14.567574h-38.553839z" fill="#334D5C" /><path d="M313.328428 329.026245h89.1636v90.670591h-89.1636z" fill="#F5F5F5" /><path d="M465.283297 343.844984h243.63012v14.818739h-243.63012zM465.283297 389.18028h243.63012v14.818739h-243.63012z" fill="#CED0D0" /><path d="M359.417219 386.794211l-41.442237-41.442237-10.423351 10.548934 41.442237 41.316654 10.423351 10.548933 10.42335-10.548933 57.767967-57.767967-10.423351-10.42335-57.767966 57.767966z" fill="#FB5D74" /><path d="M313.328428 481.985774h89.1636v90.670591h-89.1636z" fill="#F5F5F5" /><path d="M465.283297 496.804513h243.63012v14.818739h-243.63012zM465.283297 542.139809h243.63012v14.818739h-243.63012z" fill="#CED0D0" /><path d="M359.417219 539.75374l-41.442237-41.442236-10.423351 10.548933 41.442237 41.316654 10.423351 10.548933 10.42335-10.548933 57.767967-57.767967-10.423351-10.42335-57.767966 57.767966z" fill="#FB5D74" /><path d="M313.328428 634.945303h89.1636v90.670591h-89.1636z" fill="#F5F5F5" /><path d="M465.283297 649.63846h243.63012v14.818739h-243.63012zM465.283297 695.099338h243.63012v14.818739h-243.63012z" fill="#CED0D0" /><path d="M604.679912 864.133431l0.376747-168.657346h168.657346L604.679912 864.133431z" fill="#FFFFFF" /><path d="M776.727986 692.838852l-0.376747 175.564386-175.564386 0.125582 175.941133-175.689968z" fill="#334D5C" /></svg>